<?xml version="1.0" standalone="no"?>
<!DOCTYPE svg PUBLIC "-//W3C//DTD SVG 20010904//EN"
 "http://www.w3.org/TR/2001/REC-SVG-20010904/DTD/svg10.dtd">
<svg version="1.0" xmlns="http://www.w3.org/2000/svg"
 width="300.000000pt" height="300.000000pt" viewBox="0 0 300.000000 300.000000"
 preserveAspectRatio="xMidYMid meet">
<metadata>
Created by potrace 1.14, written by Peter Selinger 2001-2017
</metadata>
<g transform="translate(0.000000,300.000000) scale(0.100000,-0.100000)"
fill="#000000" stroke="none">
<path d="M1022 2788 c-7 -7 -12 -29 -12 -49 l0 -38 38 6 c34 5 35 4 18 -9 -10
-8 -16 -20 -12 -26 4 -7 3 -12 -2 -12 -5 0 -12 -9 -15 -20 -7 -28 9 -25 66 11
53 33 56 51 11 60 l-29 7 28 1 c42 2 69 -16 62 -40 -6 -18 -4 -19 12 -11 10 6
25 19 35 30 15 19 14 22 -15 50 -18 17 -45 36 -60 41 -38 15 -110 14 -125 -1z"/>
<path d="M1288 2749 c-22 -12 -22 -28 -3 -53 14 -19 15 -19 35 -1 38 35 11 80
-32 54z"/>
<path d="M1967 2713 c-3 -4 18 -21 46 -37 l51 -29 -25 34 c-25 33 -62 49 -72
32z"/>
<path d="M1663 2698 c-33 -16 -35 -36 -7 -54 28 -19 36 -14 52 34 10 28 9 32
-6 31 -9 0 -27 -5 -39 -11z"/>
<path d="M1744 2672 c-20 -13 -38 -56 -25 -60 30 -10 134 -87 162 -120 29 -35
30 -35 16 -7 -8 17 -18 45 -22 62 -7 34 -88 133 -108 133 -7 0 -17 -4 -23 -8z"/>
<path d="M1830 2670 c0 -10 89 -65 95 -58 4 4 -81 68 -90 68 -3 0 -5 -4 -5
-10z"/>
<path d="M1910 2676 c0 -3 11 -17 25 -32 20 -22 36 -28 71 -29 54 -2 53 11 -2
42 -34 20 -94 31 -94 19z"/>
<path d="M1580 2656 c0 -4 5 -16 10 -26 8 -15 4 -27 -15 -56 -14 -21 -28 -48
-31 -61 -4 -13 -10 -23 -14 -23 -5 0 -15 -3 -24 -6 -11 -4 -18 4 -25 28 -7 24
-9 27 -10 11 -2 -35 -21 -37 -27 -3 -14 67 -42 45 -75 -60 -11 -36 -23 -71
-25 -77 -4 -8 3 -13 18 -13 72 0 182 -90 233 -190 31 -61 34 -99 11 -132 -27
-38 -136 -128 -156 -128 -11 0 -31 18 -47 43 -25 37 -35 43 -83 54 -30 6 -46
12 -34 12 50 2 83 24 123 81 42 60 50 87 29 108 -17 17 -90 15 -114 -3 -18
-14 -18 -14 6 -16 24 -1 24 -1 3 -7 -30 -10 -85 -61 -80 -75 5 -16 82 -21 104
-8 10 6 12 11 6 11 -15 0 -18 30 -3 30 6 0 10 -5 10 -11 0 -5 5 -7 11 -4 6 4
8 14 5 24 -5 14 -4 13 8 -2 12 -16 14 -16 27 -1 11 14 10 18 -6 31 -20 15 -20
15 0 11 30 -5 29 -29 -6 -70 -29 -37 -33 -38 -94 -38 -55 0 -66 3 -79 22 -22
31 -20 51 7 75 52 48 148 69 196 43 24 -12 53 -57 61 -95 l7 -30 18 37 c16 32
17 43 7 77 -23 75 -130 142 -203 126 -34 -8 -69 -48 -69 -80 0 -13 -21 -55
-47 -94 l-48 -70 -3 54 c-3 55 9 94 47 150 l20 31 -27 -1 c-23 0 -27 5 -33 37
-8 51 7 155 30 201 22 44 15 40 -61 -31 -25 -24 -51 -41 -57 -38 -6 4 -18 22
-27 39 -20 39 -33 48 -59 41 -19 -4 -19 -4 1 8 15 9 19 19 14 32 -4 14 -9 16
-14 8 -4 -7 -4 -16 -1 -22 10 -16 -21 -11 -36 6 -11 14 -14 13 -25 -8 -11 -18
-13 -19 -14 -5 0 37 -90 4 -90 -33 0 -13 45 -13 93 1 22 6 41 8 44 6 2 -3 -30
-13 -71 -23 -70 -16 -76 -20 -76 -43 0 -41 11 -50 96 -71 92 -23 177 -77 208
-130 l21 -35 -46 37 c-41 34 -118 74 -177 92 -20 7 -21 6 -12 -20 6 -14 31
-49 55 -76 28 -31 51 -70 61 -102 17 -53 17 -53 43 -40 35 19 71 18 71 -1 0
-8 -4 -15 -10 -15 -14 0 -50 -75 -50 -103 0 -36 31 -58 197 -141 83 -41 154
-80 158 -85 3 -6 -2 -32 -10 -59 -13 -40 -14 -58 -6 -88 17 -60 15 -70 -9 -49
-25 22 -41 72 -42 127 0 25 -7 51 -16 61 -9 10 -72 51 -141 90 -69 40 -143 89
-164 109 -36 34 -39 41 -34 78 3 22 1 40 -3 40 -17 0 -100 -92 -132 -146 -20
-33 -39 -53 -48 -52 -42 9 -64 168 -37 271 21 81 2 61 -58 -58 -26 -51 -53
-96 -60 -99 -7 -2 -25 9 -41 25 -15 16 -34 29 -41 29 -20 0 -17 6 39 73 88
106 109 177 63 222 -27 28 -59 33 -121 20 -24 -5 -44 -44 -44 -85 0 -20 -12
-43 -35 -69 -19 -21 -35 -49 -35 -62 0 -20 -2 -21 -11 -9 -8 11 -9 6 -7 -22 3
-32 2 -35 -13 -27 -10 5 -19 17 -21 28 -2 15 -8 17 -25 10 -27 -10 -30 -52 -8
-112 l13 -39 -39 4 c-21 2 -39 2 -39 1 0 -1 14 -10 30 -18 27 -14 30 -21 28
-53 -4 -43 16 -56 103 -71 l54 -9 -45 0 c-25 0 -56 3 -70 7 -28 8 -60 -13 -60
-40 0 -37 153 -159 310 -248 32 -19 74 -47 92 -63 32 -28 31 -28 -35 8 -37 20
-70 34 -73 31 -9 -9 16 -98 43 -149 31 -60 96 -111 173 -135 85 -28 235 -179
270 -273 7 -19 32 -61 56 -93 42 -54 53 -77 37 -77 -4 0 -17 10 -30 22 -30 28
-29 11 2 -32 24 -33 34 -67 16 -56 -5 3 -16 -5 -25 -19 -9 -14 -22 -25 -29
-25 -18 0 -57 -43 -57 -62 0 -16 54 -68 70 -68 5 0 17 -3 27 -7 15 -6 16 -5 5
9 -16 19 -10 24 45 33 31 5 48 2 64 -9 l22 -15 -27 -11 c-15 -5 -31 -10 -35
-10 -8 0 -24 -71 -17 -77 2 -2 22 12 46 32 43 36 66 37 57 4 -7 -26 2 -23 43
11 51 45 57 36 11 -17 -151 -177 -161 -191 -161 -228 0 -45 36 -81 97 -98 24
-6 43 -15 43 -20 0 -13 66 -37 104 -37 58 0 78 14 27 20 -32 4 -49 12 -62 30
-18 24 -18 29 0 164 22 165 32 182 84 146 29 -20 36 -32 47 -89 20 -102 29
-115 29 -43 1 57 3 62 23 62 12 0 35 -12 52 -27 l30 -28 -25 35 c-14 19 -42
58 -62 86 l-37 52 44 -5 c26 -3 46 -1 50 6 5 7 -1 11 -13 11 -12 0 -43 9 -71
19 -33 13 -50 15 -50 8 0 -8 -3 -8 -8 -2 -4 6 -25 10 -47 10 l-40 0 -3 43 -3
44 38 -2 c56 -3 56 -2 35 25 -18 23 -19 37 -14 208 l5 184 -49 10 -49 11 50 1
50 2 -85 25 c-140 41 -201 92 -97 81 l52 -6 -63 29 c-34 16 -109 48 -167 71
-112 46 -137 69 -115 108 16 32 70 61 110 61 42 0 98 -15 164 -43 48 -20 50
-23 103 -134 l53 -113 39 0 c21 0 57 6 79 14 52 18 124 64 118 75 -3 4 15 32
41 62 106 124 109 209 9 209 -50 0 -76 21 -59 48 38 61 143 -12 143 -98 -1
-47 -32 -114 -81 -172 -37 -45 -38 -47 -14 -38 15 6 39 10 54 10 23 0 31 7 45
38 10 21 35 58 57 83 l40 44 -42 -84 -41 -84 99 6 c103 5 215 38 254 73 30 27
23 33 -23 17 -43 -15 -68 -12 -68 8 0 6 25 37 56 68 l55 56 -43 5 -43 5 33 8
c35 7 79 47 122 111 14 20 49 51 78 70 l52 33 -77 7 c-43 3 -98 9 -123 14
l-45 8 95 23 c52 13 96 25 98 26 2 2 -11 16 -28 33 -22 22 -30 40 -30 65 0 31
-7 39 -70 85 -80 59 -130 122 -130 164 0 19 4 28 13 25 6 -2 11 -15 9 -29 -3
-30 56 -102 102 -124 29 -14 29 -13 -10 23 -50 46 -65 72 -57 101 3 15 1 22
-8 22 -8 1 -3 7 10 14 l24 14 -21 11 c-18 10 -31 7 -75 -14 -30 -14 -61 -25
-70 -25 -30 0 -19 -41 45 -173 40 -85 63 -145 66 -178 6 -65 -12 -64 -34 4
-25 77 -66 165 -106 227 -60 95 -66 122 -42 185 6 15 4 16 -13 7 -14 -8 -23
-8 -31 0 -8 8 -14 4 -23 -16 l-12 -27 -29 45 c-25 37 -27 47 -17 64 7 11 9 30
5 47 -10 40 -122 147 -186 180 -30 15 -63 34 -72 43 -10 8 -18 12 -18 8z
m-941 -340 c-2 -2 -22 -9 -43 -15 -22 -5 -35 -6 -30 -2 9 9 37 18 63 20 8 0
12 -1 10 -3z m1064 -54 c26 -26 31 -40 37 -104 4 -40 13 -100 20 -132 11 -47
11 -71 1 -118 -21 -103 -51 -186 -78 -218 -30 -37 -92 -70 -128 -70 -35 0 -56
50 -57 138 -2 104 21 164 100 262 86 106 92 118 92 174 0 65 -23 86 -97 87
-46 1 -53 3 -33 10 48 16 110 4 143 -29z m-1069 11 c6 -15 8 -15 16 -3 8 12
10 9 10 -10 0 -40 -36 -90 -65 -90 -30 0 -32 11 -4 36 33 29 42 53 28 70 -7 8
-7 14 -1 14 5 0 13 -8 16 -17z m-121 -58 c-21 -26 -29 -31 -31 -19 -4 18 25
54 45 54 9 0 4 -12 -14 -35z m710 -195 c32 -8 32 -8 4 -9 -32 -1 -67 15 -67
31 0 7 5 6 15 -2 8 -7 30 -16 48 -20z m-532 -41 c49 -11 99 -45 99 -68 0 -16
-143 -3 -222 20 -36 10 -82 19 -100 19 -68 0 -48 15 34 26 114 15 129 16 189
3z m49 -111 c0 -21 -31 -46 -50 -41 -20 5 -34 29 -24 44 8 13 74 11 74 -3z
m-151 -144 c29 -15 48 -30 42 -32 -17 -6 -109 49 -155 91 l-41 38 50 -34 c28
-19 74 -47 104 -63z m428 44 c-3 -8 -6 -5 -6 6 -1 11 2 17 5 13 3 -3 4 -12 1
-19z m-302 -144 c14 -9 23 -19 21 -21 -7 -7 -71 33 -87 54 -15 19 -13 18 66
-33z m845 -73 c0 -28 -21 -37 -37 -16 -10 15 -10 20 0 27 21 13 37 9 37 -11z
m140 -5 c0 -2 -8 -10 -17 -17 -16 -13 -17 -12 -4 4 13 16 21 21 21 13z m-136
-143 c4 -61 3 -100 -4 -107 -5 -5 -12 -7 -16 -4 -19 19 -33 185 -17 201 22 22
30 1 37 -90z m-212 -311 c12 -28 16 -47 10 -58 -7 -12 -18 2 -50 64 -23 44
-42 84 -42 88 0 19 64 -55 82 -94z m-117 -374 c26 -11 32 -23 17 -32 -13 -8
-85 14 -102 30 -12 12 -9 14 22 14 21 0 49 -5 63 -12z m184 1 c31 -11 39 -23
21 -34 -8 -5 -100 32 -100 41 0 8 48 4 79 -7z"/>
<path d="M2126 2602 c-7 -11 5 -122 13 -122 3 0 21 9 39 20 26 16 32 26 32 55
0 29 -5 37 -26 45 -31 12 -51 13 -58 2z"/>
<path d="M770 2493 c0 -17 27 -46 38 -42 6 2 1 14 -13 28 -14 13 -25 19 -25
14z"/>
<path d="M775 2424 c-16 -8 -34 -19 -38 -24 -16 -15 3 -48 48 -84 l44 -36 26
45 c32 54 28 91 -11 105 -33 13 -34 13 -69 -6z"/>
<path d="M1920 2410 c0 -33 16 -41 35 -20 18 19 18 20 1 14 -11 -4 -21 -1 -27
7 -7 12 -9 12 -9 -1z"/>
<path d="M2324 2305 c-63 -10 -129 -43 -89 -44 42 -2 158 -54 192 -88 32 -33
34 -39 31 -89 -3 -49 -1 -54 18 -54 33 0 41 18 43 102 4 145 -55 197 -195 173z"/>
<path d="M2260 2225 c0 -3 18 -12 40 -21 42 -17 100 -75 100 -99 0 -20 26 -19
34 1 13 33 -37 85 -103 109 -44 15 -71 19 -71 10z"/>
<path d="M2230 2178 c0 -8 7 -21 15 -28 19 -16 19 -1 0 24 -12 16 -15 17 -15
4z"/>
<path d="M2303 2161 c26 -17 52 -42 59 -56 6 -14 15 -25 20 -25 11 0 10 7 -6
38 -20 39 -48 61 -87 68 l-34 6 48 -31z"/>
<path d="M2519 1988 c-21 -63 -29 -75 -59 -91 l-35 -18 45 7 c116 17 179 102
114 153 -15 12 -30 21 -34 21 -4 0 -18 -33 -31 -72z"/>
<path d="M1787 1263 c-4 -3 10 -12 30 -20 46 -15 66 -17 58 -3 -4 6 19 11 62
11 l68 2 -55 7 c-72 10 -155 12 -163 3z"/>
<path d="M1656 939 c-19 -31 -76 -191 -71 -197 1 -2 28 10 59 25 50 24 54 28
35 35 -23 9 -23 8 -4 131 3 20 4 37 2 37 -1 0 -11 -14 -21 -31z"/>
<path d="M1823 888 c-20 -26 -26 -41 -15 -34 12 7 36 46 29 46 -3 0 -9 -6 -14
-12z"/>
<path d="M1590 660 c20 -13 33 -13 25 0 -3 6 -14 10 -23 10 -15 0 -15 -2 -2
-10z"/>
<path d="M1864 634 c-23 -23 -48 -44 -55 -47 -8 -3 0 -6 18 -6 43 -1 86 36 81
69 -3 25 -4 24 -44 -16z"/>
<path d="M1738 573 c6 -2 18 -2 25 0 6 3 1 5 -13 5 -14 0 -19 -2 -12 -5z"/>
<path d="M1630 230 c0 -5 7 -10 16 -10 8 0 12 5 9 10 -3 6 -10 10 -16 10 -5 0
-9 -4 -9 -10z"/>
</g>
</svg>
